BenchTwelve-Black.ufo
<glyph name="dollar" format="1">
  <advance width="2529"/>
  <unicode hex="0024"/>
  <outline>
    <contour>
      <point x="1164" y="931" type="line"/>
      <point x="922" y="948"/>
      <point x="858" y="971"/>
      <point x="858" y="1035" type="curve" smooth="yes"/>
      <point x="858" y="1108"/>
      <point x="992" y="1124"/>
      <point x="1164" y="1124" type="curve"/>
    </contour>
    <contour>
      <point x="1296" y="315" type="line"/>
      <point x="1296" y="516" type="line"/>
      <point x="1483" y="514"/>
      <point x="1556" y="485"/>
      <point x="1556" y="410" type="curve" smooth="yes"/>
      <point x="1556" y="340"/>
      <point x="1465" y="316"/>
      <point x="1313" y="315" type="curve" smooth="yes"/>
    </contour>
    <contour>
      <point x="1198" y="-197" type="curve" smooth="yes"/>
      <point x="1262" y="-197" type="line" smooth="yes"/>
      <point x="1281" y="-197"/>
      <point x="1296" y="-163"/>
      <point x="1296" y="-117" type="curve" smooth="yes"/>
      <point x="1296" y="-40" type="line"/>
      <point x="2029" y="-27"/>
      <point x="2293" y="118"/>
      <point x="2293" y="456" type="curve" smooth="yes"/>
      <point x="2293" y="846"/>
      <point x="1793" y="903"/>
      <point x="1296" y="923" type="curve"/>
      <point x="1296" y="1122" type="line"/>
      <point x="1490" y="1115"/>
      <point x="1738" y="1083"/>
      <point x="1949" y="1016" type="curve"/>
      <point x="1957.19" y="1013.86"/>
      <point x="1965.17" y="1012.87"/>
      <point x="1972.84" y="1012.87" type="curve" smooth="yes"/>
      <point x="2008.23" y="1012.87"/>
      <point x="2037.21" y="1034.06"/>
      <point x="2052" y="1062" type="curve" smooth="yes"/>
      <point x="2052" y="1064"/>
      <point x="2139" y="1238"/>
      <point x="2139" y="1239" type="curve" smooth="yes"/>
      <point x="2142.62" y="1247.21"/>
      <point x="2144.32" y="1256"/>
      <point x="2144.32" y="1264.81" type="curve" smooth="yes"/>
      <point x="2144.32" y="1292.49"/>
      <point x="2127.55" y="1320.38"/>
      <point x="2101" y="1331" type="curve" smooth="yes"/>
      <point x="1879" y="1417"/>
      <point x="1617" y="1462"/>
      <point x="1296" y="1472" type="curve"/>
      <point x="1296" y="1563" type="line" smooth="yes"/>
      <point x="1296" y="1610"/>
      <point x="1281" y="1643"/>
      <point x="1262" y="1643" type="curve" smooth="yes"/>
      <point x="1198" y="1643" type="line" smooth="yes"/>
      <point x="1179" y="1643"/>
      <point x="1164" y="1610"/>
      <point x="1164" y="1563" type="curve" smooth="yes"/>
      <point x="1164" y="1475" type="line"/>
      <point x="638" y="1475"/>
      <point x="151" y="1427"/>
      <point x="151" y="989" type="curve" smooth="yes"/>
      <point x="151" y="594"/>
      <point x="643" y="550"/>
      <point x="1164" y="523" type="curve"/>
      <point x="1164" y="317" type="line"/>
      <point x="839" y="326"/>
      <point x="597" y="372"/>
      <point x="350" y="443" type="curve" smooth="yes"/>
      <point x="342.212" y="445.089"/>
      <point x="334.424" y="446.096"/>
      <point x="326.794" y="446.096" type="curve" smooth="yes"/>
      <point x="294.254" y="446.096"/>
      <point x="264.581" y="427.782"/>
      <point x="250" y="397" type="curve" smooth="yes"/>
      <point x="250" y="397"/>
      <point x="157" y="197"/>
      <point x="157" y="196" type="curve" smooth="yes"/>
      <point x="153.775" y="187.937"/>
      <point x="152.248" y="179.397"/>
      <point x="152.248" y="170.881" type="curve" smooth="yes"/>
      <point x="152.248" y="142.427"/>
      <point x="169.293" y="114.236"/>
      <point x="197" y="105" type="curve" smooth="yes"/>
      <point x="512" y="-9"/>
      <point x="835" y="-40"/>
      <point x="1164" y="-41" type="curve"/>
      <point x="1164" y="-117" type="line" smooth="yes"/>
      <point x="1164" y="-163"/>
      <point x="1179" y="-197"/>
    </contour>
  </outline>
</glyph>
<glyph name="ampersand" format="1">
  <advance width="3157"/>
  <unicode hex="0026"/>
  <outline>
    <contour>
      <point x="1167" y="269" type="curve" smooth="yes"/>
      <point x="1040" y="269"/>
      <point x="823" y="278"/>
      <point x="821" y="438" type="curve"/>
      <point x="820.877" y="441.87"/>
      <point x="820.809" y="445.714"/>
      <point x="820.809" y="449.528" type="curve" smooth="yes"/>
      <point x="820.809" y="538.372"/>
      <point x="857.468" y="611.041"/>
      <point x="1078" y="612" type="curve" smooth="yes"/>
      <point x="1199.33" y="612"/>
      <point x="1420.67" y="612.444"/>
      <point x="1608.67" y="612.444" type="curve" smooth="yes"/>
      <point x="1702.67" y="612.444"/>
      <point x="1788.33" y="612.333"/>
      <point x="1849" y="612" type="curve" smooth="yes"/>
      <point x="1869" y="612"/>
      <point x="1885" y="597"/>
      <point x="1885" y="577" type="curve" smooth="yes"/>
      <point x="1885" y="475" type="line" smooth="yes"/>
      <point x="1885" y="434"/>
      <point x="1889" y="396"/>
      <point x="1896" y="360" type="curve"/>
      <point x="1796" y="332"/>
      <point x="1552" y="269"/>
    </contour>
    <contour>
      <point x="2601" y="-41" type="curve" smooth="yes"/>
      <point x="2730" y="-41"/>
      <point x="2851" y="-25"/>
      <point x="2950" y="-2" type="curve" smooth="yes"/>
      <point x="2991" y="8"/>
      <point x="3022" y="46"/>
      <point x="3020" y="88" type="curve"/>
      <point x="3019" y="232" type="line"/>
      <point x="3017.31" y="265.751"/>
      <point x="2995.69" y="289.534"/>
      <point x="2963.75" y="289.534" type="curve" smooth="yes"/>
      <point x="2957.83" y="289.534"/>
      <point x="2951.56" y="288.719"/>
      <point x="2945" y="287" type="curve" smooth="yes"/>
      <point x="2876" y="269"/>
      <point x="2789" y="254"/>
      <point x="2707" y="254" type="curve" smooth="yes"/>
      <point x="2571" y="254"/>
      <point x="2459" y="295"/>
      <point x="2459" y="433" type="curve" smooth="yes"/>
      <point x="2459" y="577" type="line" smooth="yes"/>
      <point x="2459" y="597"/>
      <point x="2474" y="612"/>
      <point x="2494" y="612" type="curve" smooth="yes"/>
      <point x="2866" y="612" type="line" smooth="yes"/>
      <point x="2909" y="612"/>
      <point x="2942" y="645"/>
      <point x="2942" y="688" type="curve" smooth="yes"/>
      <point x="2942" y="801" type="line" smooth="yes"/>
      <point x="2942" y="844"/>
      <point x="2909" y="876"/>
      <point x="2866" y="876" type="curve" smooth="yes"/>
      <point x="2494" y="876" type="line" smooth="yes"/>
      <point x="2474" y="876"/>
      <point x="2459" y="892"/>
      <point x="2459" y="912" type="curve" smooth="yes"/>
      <point x="2459" y="1348" type="line" smooth="yes"/>
      <point x="2459" y="1391"/>
      <point x="2426" y="1423"/>
      <point x="2383" y="1423" type="curve" smooth="yes"/>
      <point x="1989" y="1423" type="line" smooth="yes"/>
      <point x="1946" y="1423"/>
      <point x="1915" y="1391"/>
      <point x="1913" y="1348" type="curve" smooth="yes"/>
      <point x="1885" y="912" type="line"/>
      <point x="1885" y="892"/>
      <point x="1869" y="876"/>
      <point x="1849" y="876" type="curve" smooth="yes"/>
      <point x="1079" y="876" type="line" smooth="yes"/>
      <point x="855.87" y="876"/>
      <point x="816.922" y="936.761"/>
      <point x="816.922" y="1018.51" type="curve" smooth="yes"/>
      <point x="816.922" y="1020.66"/>
      <point x="816.949" y="1022.82"/>
      <point x="817" y="1025" type="curve" smooth="yes"/>
      <point x="819" y="1151"/>
      <point x="1014" y="1165"/>
      <point x="1162" y="1165" type="curve" smooth="yes"/>
      <point x="1372" y="1165"/>
      <point x="1600" y="1129"/>
      <point x="1625" y="1126" type="curve" smooth="yes"/>
      <point x="1634" y="1124"/>
      <point x="1641" y="1123"/>
      <point x="1648" y="1123" type="curve" smooth="yes"/>
      <point x="1674" y="1123"/>
      <point x="1688" y="1136"/>
      <point x="1692" y="1167" type="curve" smooth="yes"/>
      <point x="1714" y="1352" type="line" smooth="yes"/>
      <point x="1715" y="1357"/>
      <point x="1715" y="1361"/>
      <point x="1715" y="1365" type="curve" smooth="yes"/>
      <point x="1715" y="1395"/>
      <point x="1699" y="1412"/>
      <point x="1662" y="1422" type="curve"/>
      <point x="1591" y="1439"/>
      <point x="1319" y="1475"/>
      <point x="1161" y="1475" type="curve" smooth="yes"/>
      <point x="556" y="1475"/>
      <point x="147" y="1367"/>
      <point x="147" y="1036" type="curve" smooth="yes"/>
      <point x="147" y="858"/>
      <point x="262" y="758"/>
      <point x="463" y="737" type="curve"/>
      <point x="256" y="712"/>
      <point x="151" y="602"/>
      <point x="151" y="424" type="curve" smooth="yes"/>
      <point x="151" y="76"/>
      <point x="558" y="-40"/>
      <point x="1163" y="-40" type="curve" smooth="yes"/>
      <point x="1605" y="-40"/>
      <point x="1939" y="59"/>
      <point x="2064" y="101" type="curve"/>
      <point x="2202" y="-2"/>
      <point x="2404" y="-41"/>
    </contour>
  </outline>
</glyph>
<glyph name="asterisk" format="1">
  <advance width="1320"/>
  <unicode hex="002A"/>
  <outline>
    <contour>
      <point x="402" y="407" type="curve" smooth="yes"/>
      <point x="443" y="407"/>
      <point x="479" y="431"/>
      <point x="497" y="466" type="curve" smooth="yes"/>
      <point x="657" y="788" type="line"/>
      <point x="816" y="466" type="line" smooth="yes"/>
      <point x="834" y="431"/>
      <point x="871" y="407"/>
      <point x="911" y="407" type="curve" smooth="yes"/>
      <point x="969" y="407"/>
      <point x="1023" y="456"/>
      <point x="1023" y="516" type="curve" smooth="yes"/>
      <point x="1023" y="600"/>
      <point x="824" y="787"/>
      <point x="756" y="858" type="curve"/>
      <point x="1109" y="936" type="line" smooth="yes"/>
      <point x="1156" y="946"/>
      <point x="1194" y="988"/>
      <point x="1194" y="1038" type="curve" smooth="yes"/>
      <point x="1194" y="1095"/>
      <point x="1150" y="1151"/>
      <point x="1088" y="1151" type="curve" smooth="yes"/>
      <point x="1026" y="1151"/>
      <point x="805" y="1022"/>
      <point x="717" y="975" type="curve"/>
      <point x="734" y="1096"/>
      <point x="763" y="1229"/>
      <point x="763" y="1348" type="curve" smooth="yes"/>
      <point x="763" y="1407"/>
      <point x="714" y="1451"/>
      <point x="657" y="1451" type="curve" smooth="yes"/>
      <point x="604" y="1451"/>
      <point x="548" y="1414"/>
      <point x="548" y="1353" type="curve" smooth="yes"/>
      <point x="548" y="1232"/>
      <point x="578" y="1093"/>
      <point x="595" y="975" type="curve"/>
      <point x="505" y="1024"/>
      <point x="288" y="1151"/>
      <point x="225" y="1151" type="curve" smooth="yes"/>
      <point x="163" y="1151"/>
      <point x="119" y="1095"/>
      <point x="119" y="1038" type="curve" smooth="yes"/>
      <point x="119" y="988"/>
      <point x="156" y="946"/>
      <point x="204" y="936" type="curve" smooth="yes"/>
      <point x="557" y="858" type="line"/>
      <point x="485" y="784"/>
      <point x="290" y="600"/>
      <point x="290" y="516" type="curve" smooth="yes"/>
      <point x="290" y="456"/>
      <point x="343" y="407"/>
    </contour>
  </outline>
</glyph>
<glyph name="plus" format="1">
  <advance width="1284"/>
  <unicode hex="002B"/>
  <outline>
    <contour>
      <point x="564" y="97" type="curve" smooth="yes"/>
      <point x="722" y="97" type="line" smooth="yes"/>
      <point x="765" y="97"/>
      <point x="796" y="129"/>
      <point x="796" y="172" type="curve" smooth="yes"/>
      <point x="796" y="444" type="line" smooth="yes"/>
      <point x="796" y="464"/>
      <point x="811" y="481"/>
      <point x="831" y="481" type="curve" smooth="yes"/>
      <point x="1080" y="481" type="line" smooth="yes"/>
      <point x="1123" y="481"/>
      <point x="1154" y="512"/>
      <point x="1154" y="555" type="curve" smooth="yes"/>
      <point x="1154" y="696" type="line" smooth="yes"/>
      <point x="1154" y="739"/>
      <point x="1123" y="770"/>
      <point x="1080" y="770" type="curve" smooth="yes"/>
      <point x="831" y="770" type="line" smooth="yes"/>
      <point x="811" y="770"/>
      <point x="796" y="787"/>
      <point x="796" y="807" type="curve" smooth="yes"/>
      <point x="796" y="1080" type="line" smooth="yes"/>
      <point x="796" y="1123"/>
      <point x="765" y="1156"/>
      <point x="722" y="1156" type="curve" smooth="yes"/>
      <point x="564" y="1156" type="line" smooth="yes"/>
      <point x="521" y="1156"/>
      <point x="490" y="1123"/>
      <point x="490" y="1080" type="curve" smooth="yes"/>
      <point x="490" y="807" type="line" smooth="yes"/>
      <point x="490" y="787"/>
      <point x="474" y="770"/>
      <point x="454" y="770" type="curve" smooth="yes"/>
      <point x="202" y="770" type="line" smooth="yes"/>
      <point x="159" y="770"/>
      <point x="128" y="739"/>
      <point x="128" y="696" type="curve" smooth="yes"/>
      <point x="128" y="555" type="line" smooth="yes"/>
      <point x="128" y="512"/>
      <point x="159" y="481"/>
      <point x="202" y="481" type="curve" smooth="yes"/>
      <point x="454" y="481" type="line" smooth="yes"/>
      <point x="474" y="481"/>
      <point x="490" y="464"/>
      <point x="490" y="444" type="curve" smooth="yes"/>
      <point x="490" y="172" type="line" smooth="yes"/>
      <point x="490" y="129"/>
      <point x="521" y="97"/>
    </contour>
  </outline>
</glyph>
<glyph name="comma" format="1">
  <advance width="648"/>
  <unicode hex="002C"/>
  <outline>
    <contour>
      <point x="206" y="-336" type="curve" smooth="yes"/>
      <point x="344" y="-313"/>
      <point x="518" y="-202"/>
      <point x="518" y="36" type="curve" smooth="yes"/>
      <point x="518" y="268" type="line" smooth="yes"/>
      <point x="518" y="311"/>
      <point x="484" y="345"/>
      <point x="441" y="345" type="curve" smooth="yes"/>
      <point x="191" y="345" type="line" smooth="yes"/>
      <point x="148" y="345"/>
      <point x="131" y="313"/>
      <point x="131" y="270" type="curve" smooth="yes"/>
      <point x="131" y="67" type="line" smooth="yes"/>
      <point x="131" y="29"/>
      <point x="153" y="0"/>
      <point x="191" y="0" type="curve" smooth="yes"/>
      <point x="269" y="0" type="line" smooth="yes"/>
      <point x="284" y="0"/>
      <point x="286" y="-11"/>
      <point x="286" y="-27" type="curve" smooth="yes"/>
      <point x="286" y="-51"/>
      <point x="270" y="-128"/>
      <point x="201" y="-171" type="curve" smooth="yes"/>
      <point x="158" y="-198"/>
      <point x="131" y="-192"/>
      <point x="131" y="-246" type="curve" smooth="yes"/>
      <point x="131" y="-291" type="line" smooth="yes"/>
      <point x="131" y="-321.857"/>
      <point x="160.388" y="-337.286"/>
      <point x="190.825" y="-337.286" type="curve" smooth="yes"/>
      <point x="195.898" y="-337.286"/>
      <point x="201" y="-336.857"/>
    </contour>
  </outline>
</glyph>
<glyph name="zero" format="1">
  <advance width="2320"/>
  <unicode hex="0030"/>
  <outline>
    <contour>
      <point x="1164" y="-41" type="curve" smooth="yes"/>
      <point x="1683" y="-41"/>
      <point x="2182" y="84"/>
      <point x="2182" y="723" type="curve" smooth="yes"/>
      <point x="2182" y="1314"/>
      <point x="1683" y="1475"/>
      <point x="1164" y="1475" type="curve" smooth="yes"/>
      <point x="644" y="1475"/>
      <point x="137" y="1314"/>
      <point x="137" y="723" type="curve" smooth="yes"/>
      <point x="137" y="84"/>
      <point x="644" y="-41"/>
    </contour>
    <contour>
      <point x="1164" y="323" type="curve" smooth="yes"/>
      <point x="939" y="323"/>
      <point x="833" y="415"/>
      <point x="833" y="723" type="curve" smooth="yes"/>
      <point x="833" y="1020"/>
      <point x="937" y="1117"/>
      <point x="1164" y="1117" type="curve" smooth="yes"/>
      <point x="1390" y="1117"/>
      <point x="1486" y="1020"/>
      <point x="1486" y="723" type="curve" smooth="yes"/>
      <point x="1486" y="415"/>
      <point x="1388" y="323"/>
    </contour>
  </outline>
</glyph>
<glyph name="three" format="1">
  <advance width="2208"/>
  <unicode hex="0033"/>
  <outline>
    <contour>
      <point x="1042" y="-40" type="curve" smooth="yes"/>
      <point x="1647" y="-40"/>
      <point x="2062" y="72"/>
      <point x="2062" y="413" type="curve" smooth="yes"/>
      <point x="2062" y="591"/>
      <point x="1955" y="697"/>
      <point x="1746" y="723" type="curve"/>
      <point x="1946" y="743"/>
      <point x="2058" y="844"/>
      <point x="2058" y="1022" type="curve" smooth="yes"/>
      <point x="2058" y="1360"/>
      <point x="1652" y="1474"/>
      <point x="1047" y="1474" type="curve" smooth="yes"/>
      <point x="792" y="1474"/>
      <point x="312" y="1395"/>
      <point x="200" y="1362" type="curve" smooth="yes"/>
      <point x="163" y="1352"/>
      <point x="147" y="1335"/>
      <point x="147" y="1305" type="curve" smooth="yes"/>
      <point x="147" y="1301"/>
      <point x="147" y="1297"/>
      <point x="148" y="1292" type="curve" smooth="yes"/>
      <point x="171" y="1108" type="line" smooth="yes"/>
      <point x="175" y="1077"/>
      <point x="190" y="1064"/>
      <point x="216" y="1064" type="curve" smooth="yes"/>
      <point x="223" y="1064"/>
      <point x="230" y="1065"/>
      <point x="239" y="1067" type="curve" smooth="yes"/>
      <point x="278" y="1074"/>
      <point x="705" y="1165"/>
      <point x="1045" y="1165" type="curve" smooth="yes"/>
      <point x="1179.57" y="1165"/>
      <point x="1388.17" y="1161.49"/>
      <point x="1388.17" y="1004.96" type="curve" smooth="yes"/>
      <point x="1388.17" y="915.855"/>
      <point x="1346.71" y="848"/>
      <point x="1124" y="848" type="curve" smooth="yes"/>
      <point x="888" y="848" type="line" smooth="yes"/>
      <point x="856" y="848"/>
      <point x="856" y="819"/>
      <point x="856" y="805" type="curve" smooth="yes"/>
      <point x="856" y="640" type="line" smooth="yes"/>
      <point x="856" y="626"/>
      <point x="856" y="597"/>
      <point x="888" y="597" type="curve" smooth="yes"/>
      <point x="1124" y="597" type="line" smooth="yes"/>
      <point x="1347.87" y="597"/>
      <point x="1392.07" y="529.146"/>
      <point x="1392.07" y="438.284" type="curve" smooth="yes"/>
      <point x="1392.07" y="288.72"/>
      <point x="1193" y="269"/>
      <point x="1041" y="269" type="curve" smooth="yes"/>
      <point x="707" y="269"/>
      <point x="277" y="360"/>
      <point x="238" y="367" type="curve" smooth="yes"/>
      <point x="229" y="369"/>
      <point x="222" y="370"/>
      <point x="215" y="370" type="curve" smooth="yes"/>
      <point x="189" y="370"/>
      <point x="175" y="357"/>
      <point x="171" y="326" type="curve" smooth="yes"/>
      <point x="148" y="142" type="line" smooth="yes"/>
      <point x="147" y="137"/>
      <point x="147" y="133"/>
      <point x="147" y="129" type="curve" smooth="yes"/>
      <point x="147" y="99"/>
      <point x="163" y="82"/>
      <point x="200" y="72" type="curve" smooth="yes"/>
      <point x="312" y="39"/>
      <point x="778" y="-40"/>
    </contour>
  </outline>
</glyph>
<glyph name="seven" format="1">
  <advance width="1523"/>
  <unicode hex="0037"/>
  <outline>
    <contour>
      <point x="460" y="0" type="curve" smooth="yes"/>
      <point x="973" y="0" type="line" smooth="yes"/>
      <point x="1016" y="0"/>
      <point x="1046" y="33"/>
      <point x="1048" y="76" type="curve"/>
      <point x="1413" y="1363" type="line"/>
      <point x="1413" y="1406"/>
      <point x="1380" y="1438"/>
      <point x="1337" y="1438" type="curve" smooth="yes"/>
      <point x="182" y="1438" type="line" smooth="yes"/>
      <point x="139" y="1438"/>
      <point x="107" y="1406"/>
      <point x="107" y="1363" type="curve" smooth="yes"/>
      <point x="107" y="1163" type="line" smooth="yes"/>
      <point x="107" y="1120"/>
      <point x="139" y="1087"/>
      <point x="182" y="1087" type="curve" smooth="yes"/>
      <point x="647" y="1087" type="line" smooth="yes"/>
      <point x="667" y="1087"/>
      <point x="683" y="1071"/>
      <point x="682" y="1051" type="curve"/>
      <point x="385" y="76" type="line"/>
      <point x="383" y="33"/>
      <point x="417" y="0"/>
    </contour>
  </outline>
</glyph>
<glyph name="semicolon" format="1">
  <advance width="688"/>
  <unicode hex="003B"/>
  <outline>
    <contour>
      <point x="231" y="671" type="curve" smooth="yes"/>
      <point x="444" y="671" type="line" smooth="yes"/>
      <point x="487" y="671"/>
      <point x="521" y="705"/>
      <point x="521" y="748" type="curve" smooth="yes"/>
      <point x="521" y="936" type="line" smooth="yes"/>
      <point x="521" y="979"/>
      <point x="487" y="1013"/>
      <point x="444" y="1013" type="curve" smooth="yes"/>
      <point x="231" y="1013" type="line" smooth="yes"/>
      <point x="188" y="1013"/>
      <point x="154" y="979"/>
      <point x="154" y="936" type="curve" smooth="yes"/>
      <point x="154" y="748" type="line" smooth="yes"/>
      <point x="154" y="705"/>
      <point x="188" y="671"/>
    </contour>
    <contour>
      <point x="227" y="-336" type="curve" smooth="yes"/>
      <point x="365" y="-313"/>
      <point x="539" y="-202"/>
      <point x="539" y="36" type="curve" smooth="yes"/>
      <point x="539" y="268" type="line" smooth="yes"/>
      <point x="539" y="311"/>
      <point x="505" y="345"/>
      <point x="462" y="345" type="curve" smooth="yes"/>
      <point x="212" y="345" type="line" smooth="yes"/>
      <point x="169" y="345"/>
      <point x="152" y="313"/>
      <point x="152" y="270" type="curve" smooth="yes"/>
      <point x="152" y="67" type="line" smooth="yes"/>
      <point x="152" y="29"/>
      <point x="174" y="0"/>
      <point x="212" y="0" type="curve" smooth="yes"/>
      <point x="289" y="0" type="line" smooth="yes"/>
      <point x="304" y="0"/>
      <point x="306" y="-11"/>
      <point x="306" y="-27" type="curve" smooth="yes"/>
      <point x="306" y="-51"/>
      <point x="291" y="-128"/>
      <point x="222" y="-171" type="curve" smooth="yes"/>
      <point x="179" y="-198"/>
      <point x="152" y="-192"/>
      <point x="152" y="-246" type="curve" smooth="yes"/>
      <point x="152" y="-291" type="line" smooth="yes"/>
      <point x="152" y="-321.857"/>
      <point x="181.388" y="-337.286"/>
      <point x="211.825" y="-337.286" type="curve" smooth="yes"/>
      <point x="216.898" y="-337.286"/>
      <point x="222" y="-336.857"/>
    </contour>
  </outline>
</glyph>
<glyph name="question" format="1">
  <advance width="1879"/>
  <unicode hex="003F"/>
  <outline>
    <contour>
      <point x="627" y="0" type="curve" smooth="yes"/>
      <point x="846" y="0" type="line" smooth="yes"/>
      <point x="889" y="0"/>
      <point x="920" y="31"/>
      <point x="920" y="74" type="curve" smooth="yes"/>
      <point x="920" y="260" type="line" smooth="yes"/>
      <point x="920" y="303"/>
      <point x="889" y="334"/>
      <point x="846" y="334" type="curve" smooth="yes"/>
      <point x="627" y="334" type="line" smooth="yes"/>
      <point x="584" y="334"/>
      <point x="553" y="303"/>
      <point x="553" y="260" type="curve" smooth="yes"/>
      <point x="553" y="74" type="line" smooth="yes"/>
      <point x="553" y="31"/>
      <point x="584" y="0"/>
    </contour>
    <contour>
      <point x="689" y="451" type="curve"/>
      <point x="753" y="491"/>
      <point x="774" y="550"/>
      <point x="964" y="564" type="curve" smooth="yes"/>
      <point x="1344" y="591"/>
      <point x="1746" y="599"/>
      <point x="1746" y="999" type="curve" smooth="yes"/>
      <point x="1746" y="1350"/>
      <point x="1349" y="1475"/>
      <point x="811" y="1475" type="curve" smooth="yes"/>
      <point x="550" y="1475"/>
      <point x="264" y="1383"/>
      <point x="150" y="1342" type="curve" smooth="yes"/>
      <point x="121.316" y="1331.43"/>
      <point x="102.888" y="1304.34"/>
      <point x="102.888" y="1276.64" type="curve" smooth="yes"/>
      <point x="102.888" y="1267.64"/>
      <point x="104.832" y="1258.58"/>
      <point x="109" y="1250" type="curve"/>
      <point x="184" y="1079" type="line" smooth="yes"/>
      <point x="198.122" y="1047.62"/>
      <point x="226.402" y="1028.55"/>
      <point x="258.697" y="1028.55" type="curve" smooth="yes"/>
      <point x="267.565" y="1028.55"/>
      <point x="276.736" y="1029.98"/>
      <point x="286" y="1033" type="curve" smooth="yes"/>
      <point x="483" y="1095"/>
      <point x="689" y="1141"/>
      <point x="940" y="1141" type="curve" smooth="yes"/>
      <point x="1177.23" y="1141"/>
      <point x="1240.97" y="1079.21"/>
      <point x="1240.97" y="978.177" type="curve" smooth="yes"/>
      <point x="1240.97" y="879.569"/>
      <point x="1149.82" y="837.826"/>
      <point x="1006" y="828" type="curve" smooth="yes"/>
      <point x="770" y="812"/>
      <point x="685" y="771"/>
      <point x="573" y="679" type="curve"/>
      <point x="559.994" y="670.33"/>
      <point x="539.158" y="656.439"/>
      <point x="539.158" y="626.766" type="curve" smooth="yes"/>
      <point x="539.158" y="615.371"/>
      <point x="542.231" y="601.648"/>
      <point x="550" y="585" type="curve"/>
      <point x="561" y="568"/>
      <point x="599" y="512"/>
      <point x="616" y="489" type="curve"/>
      <point x="632.547" y="458.065"/>
      <point x="654.269" y="445.762"/>
      <point x="671.486" y="445.762" type="curve" smooth="yes"/>
      <point x="678.201" y="445.762"/>
      <point x="684.23" y="447.633"/>
    </contour>
  </outline>
</glyph>
<glyph name="C" format="1">
  <advance width="2475"/>
  <unicode hex="0043"/>
  <outline>
    <contour>
      <point x="1320" y="-41" type="curve" smooth="yes"/>
      <point x="1754" y="-41"/>
      <point x="2306" y="58"/>
      <point x="2332" y="435" type="curve" smooth="yes"/>
      <point x="2332" y="447"/>
      <point x="2330" y="461"/>
      <point x="2329" y="474" type="curve"/>
      <point x="2325" y="496"/>
      <point x="2307" y="514"/>
      <point x="2284" y="516" type="curve"/>
      <point x="2260" y="520"/>
      <point x="1843" y="555"/>
      <point x="1842" y="555" type="curve" smooth="yes"/>
      <point x="1837.43" y="555.345"/>
      <point x="1833.03" y="555.519"/>
      <point x="1828.8" y="555.519" type="curve" smooth="yes"/>
      <point x="1784.04" y="555.519"/>
      <point x="1758.01" y="536.03"/>
      <point x="1737" y="494" type="curve"/>
      <point x="1679" y="386"/>
      <point x="1558" y="329"/>
      <point x="1320" y="329" type="curve"/>
      <point x="1051" y="334"/>
      <point x="864" y="418"/>
      <point x="864" y="719" type="curve" smooth="yes"/>
      <point x="864" y="1010"/>
      <point x="1049" y="1103"/>
      <point x="1320" y="1108" type="curve"/>
      <point x="1541" y="1108"/>
      <point x="1664" y="1058"/>
      <point x="1730" y="956" type="curve" smooth="yes"/>
      <point x="1756.94" y="914.691"/>
      <point x="1784.69" y="898.382"/>
      <point x="1828.45" y="898.382" type="curve" smooth="yes"/>
      <point x="1833.42" y="898.382"/>
      <point x="1838.6" y="898.592"/>
      <point x="1844" y="899" type="curve" smooth="yes"/>
      <point x="1844" y="899"/>
      <point x="2280" y="929"/>
      <point x="2306" y="932" type="curve"/>
      <point x="2312" y="934"/>
      <point x="2318" y="939"/>
      <point x="2319" y="945" type="curve" smooth="yes"/>
      <point x="2319" y="947"/>
      <point x="2318" y="958"/>
      <point x="2318" y="959" type="curve" smooth="yes"/>
      <point x="2271" y="1359"/>
      <point x="1768" y="1475"/>
      <point x="1320" y="1475" type="curve" smooth="yes"/>
      <point x="741" y="1475"/>
      <point x="135" y="1325"/>
      <point x="135" y="719" type="curve" smooth="yes"/>
      <point x="135" y="105"/>
      <point x="741" y="-41"/>
    </contour>
  </outline>
</glyph>
<glyph name="D" format="1">
  <advance width="2421"/>
  <unicode hex="0044"/>
  <outline>
    <contour>
      <point x="235" y="0" type="curve" smooth="yes"/>
      <point x="1218" y="0" type="line" smooth="yes"/>
      <point x="1796" y="0"/>
      <point x="2282" y="31"/>
      <point x="2282" y="731" type="curve" smooth="yes"/>
      <point x="2282" y="1267"/>
      <point x="1832" y="1438"/>
      <point x="1321" y="1438" type="curve" smooth="yes"/>
      <point x="235" y="1438" type="line" smooth="yes"/>
      <point x="192" y="1438"/>
      <point x="159" y="1404"/>
      <point x="159" y="1361" type="curve" smooth="yes"/>
      <point x="159" y="76" type="line" smooth="yes"/>
      <point x="159" y="33"/>
      <point x="192" y="0"/>
    </contour>
    <contour>
      <point x="864" y="346" type="curve" smooth="yes"/>
      <point x="847" y="346"/>
      <point x="828" y="364"/>
      <point x="828" y="381" type="curve" smooth="yes"/>
      <point x="828" y="1065" type="line" smooth="yes"/>
      <point x="828" y="1082"/>
      <point x="846" y="1099"/>
      <point x="863" y="1099" type="curve" smooth="yes"/>
      <point x="1178" y="1099" type="line" smooth="yes"/>
      <point x="1406" y="1099"/>
      <point x="1621" y="1047"/>
      <point x="1621" y="728" type="curve" smooth="yes"/>
      <point x="1621" y="384"/>
      <point x="1435" y="346"/>
      <point x="1151" y="346" type="curve" smooth="yes"/>
      <point x="1114.33" y="346"/>
      <point x="1027.44" y="345.556"/>
      <point x="954.63" y="345.556" type="curve" smooth="yes"/>
      <point x="918.222" y="345.556"/>
      <point x="885.333" y="345.667"/>
    </contour>
  </outline>
</glyph>
<glyph name="F" format="1">
  <advance width="2095"/>
  <unicode hex="0046"/>
  <outline>
    <contour>
      <point x="232" y="0" type="curve" smooth="yes"/>
      <point x="787" y="0" type="line" smooth="yes"/>
      <point x="830" y="0"/>
      <point x="862" y="33"/>
      <point x="862" y="76" type="curve" smooth="yes"/>
      <point x="862" y="490" type="line" smooth="yes"/>
      <point x="862" y="507"/>
      <point x="879" y="524"/>
      <point x="896" y="524" type="curve" smooth="yes"/>
      <point x="1637" y="524" type="line" smooth="yes"/>
      <point x="1680" y="524"/>
      <point x="1713" y="558"/>
      <point x="1713" y="601" type="curve" smooth="yes"/>
      <point x="1713" y="732" type="line" smooth="yes"/>
      <point x="1713" y="775"/>
      <point x="1680" y="809"/>
      <point x="1637" y="809" type="curve" smooth="yes"/>
      <point x="895" y="809" type="line" smooth="yes"/>
      <point x="878" y="809"/>
      <point x="862" y="825"/>
      <point x="862" y="842" type="curve" smooth="yes"/>
      <point x="862" y="1053" type="line" smooth="yes"/>
      <point x="862" y="1073"/>
      <point x="877" y="1089"/>
      <point x="897" y="1089" type="curve" smooth="yes"/>
      <point x="1947" y="1089" type="line" smooth="yes"/>
      <point x="1990" y="1089"/>
      <point x="2023" y="1123"/>
      <point x="2023" y="1166" type="curve" smooth="yes"/>
      <point x="2023" y="1361" type="line" smooth="yes"/>
      <point x="2023" y="1404"/>
      <point x="1990" y="1438"/>
      <point x="1947" y="1438" type="curve" smooth="yes"/>
      <point x="232" y="1438" type="line" smooth="yes"/>
      <point x="189" y="1438"/>
      <point x="157" y="1404"/>
      <point x="157" y="1361" type="curve" smooth="yes"/>
      <point x="157" y="76" type="line" smooth="yes"/>
      <point x="157" y="33"/>
      <point x="189" y="0"/>
    </contour>
  </outline>
</glyph>
<glyph name="K" format="1">
  <advance width="2199"/>
  <unicode hex="004B"/>
  <outline>
    <contour>
      <point x="235" y="0" type="curve" smooth="yes"/>
      <point x="766" y="0" type="line" smooth="yes"/>
      <point x="809" y="0"/>
      <point x="841" y="33"/>
      <point x="841" y="76" type="curve" smooth="yes"/>
      <point x="841" y="667" type="line"/>
      <point x="1307" y="64" type="line" smooth="yes"/>
      <point x="1336" y="26"/>
      <point x="1380" y="0"/>
      <point x="1426" y="0" type="curve" smooth="yes"/>
      <point x="2040" y="0" type="line" smooth="yes"/>
      <point x="2062.97" y="0"/>
      <point x="2078.68" y="16.9618"/>
      <point x="2078.68" y="36.7158" type="curve" smooth="yes"/>
      <point x="2078.68" y="45.338"/>
      <point x="2075.68" y="54.4921"/>
      <point x="2069" y="63" type="curve" smooth="yes"/>
      <point x="1490" y="784" type="line" smooth="yes"/>
      <point x="1481.37" y="794.745"/>
      <point x="1477.43" y="802.441"/>
      <point x="1477.43" y="809.601" type="curve" smooth="yes"/>
      <point x="1477.43" y="819.977"/>
      <point x="1485.71" y="829.227"/>
      <point x="1500" y="845" type="curve" smooth="yes"/>
      <point x="1982" y="1377" type="line" smooth="yes"/>
      <point x="1989.31" y="1384.94"/>
      <point x="1992.58" y="1394"/>
      <point x="1992.58" y="1402.66" type="curve" smooth="yes"/>
      <point x="1992.58" y="1421.25"/>
      <point x="1977.51" y="1438"/>
      <point x="1955" y="1438" type="curve" smooth="yes"/>
      <point x="1443" y="1438" type="line" smooth="yes"/>
      <point x="1397" y="1438"/>
      <point x="1349" y="1412"/>
      <point x="1321" y="1378" type="curve" smooth="yes"/>
      <point x="841" y="820" type="line"/>
      <point x="841" y="1363" type="line" smooth="yes"/>
      <point x="841" y="1406"/>
      <point x="809" y="1438"/>
      <point x="766" y="1438" type="curve" smooth="yes"/>
      <point x="235" y="1438" type="line" smooth="yes"/>
      <point x="192" y="1438"/>
      <point x="159" y="1406"/>
      <point x="159" y="1363" type="curve" smooth="yes"/>
      <point x="159" y="76" type="line" smooth="yes"/>
      <point x="159" y="33"/>
      <point x="192" y="0"/>
    </contour>
  </outline>
</glyph>
<glyph name="M" format="1">
  <advance width="2946"/>
  <unicode hex="004D"/>
  <outline>
    <contour>
      <point x="223" y="0" type="curve" smooth="yes"/>
      <point x="669" y="0" type="line" smooth="yes"/>
      <point x="712" y="0"/>
      <point x="745" y="33"/>
      <point x="745" y="76" type="curve"/>
      <point x="793" y="804" type="line" smooth="yes"/>
      <point x="793.434" y="810.587"/>
      <point x="797.341" y="813.558"/>
      <point x="801.429" y="813.558" type="curve" smooth="yes"/>
      <point x="804.757" y="813.558"/>
      <point x="808.205" y="811.59"/>
      <point x="810" y="808" type="curve" smooth="yes"/>
      <point x="1243" y="67" type="line" smooth="yes"/>
      <point x="1266" y="26"/>
      <point x="1310" y="0"/>
      <point x="1356" y="0" type="curve" smooth="yes"/>
      <point x="1586" y="0" type="line" smooth="yes"/>
      <point x="1632" y="0"/>
      <point x="1676" y="26"/>
      <point x="1699" y="67" type="curve" smooth="yes"/>
      <point x="2135" y="810" type="line" smooth="yes"/>
      <point x="2136.91" y="813.81"/>
      <point x="2140.65" y="816.247"/>
      <point x="2144.14" y="816.247" type="curve" smooth="yes"/>
      <point x="2147.99" y="816.247"/>
      <point x="2151.53" y="813.302"/>
      <point x="2152" y="806" type="curve" smooth="yes"/>
      <point x="2199" y="76" type="line"/>
      <point x="2200" y="33"/>
      <point x="2233" y="0"/>
      <point x="2276" y="0" type="curve" smooth="yes"/>
      <point x="2722" y="0" type="line" smooth="yes"/>
      <point x="2765" y="0"/>
      <point x="2797" y="33"/>
      <point x="2797" y="76" type="curve"/>
      <point x="2713" y="1363" type="line"/>
      <point x="2712" y="1405"/>
      <point x="2680" y="1438"/>
      <point x="2638" y="1438" type="curve" smooth="yes"/>
      <point x="2010" y="1438" type="line" smooth="yes"/>
      <point x="1963" y="1438"/>
      <point x="1920" y="1411"/>
      <point x="1898" y="1371" type="curve" smooth="yes"/>
      <point x="1488" y="646" type="line" smooth="yes"/>
      <point x="1482.94" y="637.06"/>
      <point x="1476.97" y="633.183"/>
      <point x="1471.17" y="633.183" type="curve" smooth="yes"/>
      <point x="1464.71" y="633.183"/>
      <point x="1458.48" y="638.005"/>
      <point x="1454" y="646" type="curve" smooth="yes"/>
      <point x="1048" y="1371" type="line" smooth="yes"/>
      <point x="1026" y="1411"/>
      <point x="982" y="1438"/>
      <point x="936" y="1438" type="curve" smooth="yes"/>
      <point x="308" y="1438" type="line" smooth="yes"/>
      <point x="266" y="1438"/>
      <point x="233" y="1405"/>
      <point x="233" y="1363" type="curve"/>
      <point x="148" y="76" type="line"/>
      <point x="147" y="33"/>
      <point x="180" y="0"/>
    </contour>
  </outline>
</glyph>
<glyph name="N" format="1">
  <advance width="2542"/>
  <unicode hex="004E"/>
  <outline>
    <contour>
      <point x="235" y="0" type="curve" smooth="yes"/>
      <point x="681" y="0" type="line" smooth="yes"/>
      <point x="724" y="0"/>
      <point x="757" y="33"/>
      <point x="757" y="76" type="curve" smooth="yes"/>
      <point x="757" y="845" type="line" smooth="yes"/>
      <point x="757" y="854.409"/>
      <point x="765.905" y="861.199"/>
      <point x="774.237" y="861.199" type="curve" smooth="yes"/>
      <point x="777.417" y="861.199"/>
      <point x="780.514" y="860.21"/>
      <point x="783" y="858" type="curve" smooth="yes"/>
      <point x="1662" y="30" type="line" smooth="yes"/>
      <point x="1693" y="2"/>
      <point x="1741" y="-15"/>
      <point x="1784" y="-15" type="curve" smooth="yes"/>
      <point x="2307" y="-15" type="line" smooth="yes"/>
      <point x="2350" y="-15"/>
      <point x="2382" y="17"/>
      <point x="2382" y="60" type="curve" smooth="yes"/>
      <point x="2382" y="1361" type="line" smooth="yes"/>
      <point x="2382" y="1404"/>
      <point x="2350" y="1436"/>
      <point x="2307" y="1436" type="curve" smooth="yes"/>
      <point x="1870" y="1436" type="line" smooth="yes"/>
      <point x="1827" y="1436"/>
      <point x="1794" y="1404"/>
      <point x="1794" y="1361" type="curve" smooth="yes"/>
      <point x="1794" y="763" type="line" smooth="yes"/>
      <point x="1794" y="753.597"/>
      <point x="1785.58" y="746.759"/>
      <point x="1777.55" y="746.759" type="curve" smooth="yes"/>
      <point x="1774.48" y="746.759"/>
      <point x="1771.47" y="747.759"/>
      <point x="1769" y="750" type="curve" smooth="yes"/>
      <point x="1047" y="1406" type="line"/>
      <point x="1015" y="1434"/>
      <point x="975" y="1452"/>
      <point x="931" y="1452" type="curve" smooth="yes"/>
      <point x="235" y="1452" type="line" smooth="yes"/>
      <point x="192" y="1452"/>
      <point x="159" y="1419"/>
      <point x="159" y="1376" type="curve" smooth="yes"/>
      <point x="159" y="76" type="line" smooth="yes"/>
      <point x="159" y="33"/>
      <point x="192" y="0"/>
    </contour>
  </outline>
</glyph>
<glyph name="Q" format="1">
  <advance width="2667"/>
  <unicode hex="0051"/>
  <outline>
    <contour>
      <point x="1333" y="324" type="curve" smooth="yes"/>
      <point x="1074" y="324"/>
      <point x="898" y="409"/>
      <point x="898" y="723" type="curve" smooth="yes"/>
      <point x="898" y="1026"/>
      <point x="1072" y="1120"/>
      <point x="1333" y="1120" type="curve" smooth="yes"/>
      <point x="1593" y="1120"/>
      <point x="1768" y="1026"/>
      <point x="1768" y="723" type="curve" smooth="yes"/>
      <point x="1768" y="409"/>
      <point x="1591" y="324"/>
    </contour>
    <contour>
      <point x="1645" y="-513" type="curve"/>
      <point x="1914" y="-407" type="line"/>
      <point x="1938.98" y="-393.497"/>
      <point x="1953.93" y="-369.054"/>
      <point x="1953.93" y="-342.904" type="curve" smooth="yes"/>
      <point x="1953.93" y="-330.322"/>
      <point x="1950.47" y="-317.344"/>
      <point x="1943" y="-305" type="curve"/>
      <point x="1777" y="-4" type="line"/>
      <point x="2173" y="65"/>
      <point x="2532" y="255"/>
      <point x="2532" y="723" type="curve" smooth="yes"/>
      <point x="2532" y="1321"/>
      <point x="1853" y="1477"/>
      <point x="1333" y="1477" type="curve" smooth="yes"/>
      <point x="813" y="1477"/>
      <point x="134" y="1321"/>
      <point x="134" y="723" type="curve" smooth="yes"/>
      <point x="134" y="95"/>
      <point x="781" y="-33"/>
      <point x="1295" y="-39" type="curve"/>
      <point x="1541" y="-485" type="line"/>
      <point x="1555.71" y="-509.737"/>
      <point x="1579.8" y="-522.852"/>
      <point x="1605.81" y="-522.852" type="curve" smooth="yes"/>
      <point x="1618.71" y="-522.852"/>
      <point x="1632.07" y="-519.629"/>
    </contour>
  </outline>
</glyph>
<glyph name="R" format="1">
  <advance width="2405"/>
  <unicode hex="0052"/>
  <outline>
    <contour>
      <point x="861" y="789" type="line" smooth="yes"/>
      <point x="844" y="789"/>
      <point x="827" y="805"/>
      <point x="827" y="822" type="curve" smooth="yes"/>
      <point x="827" y="1057" type="line" smooth="yes"/>
      <point x="827" y="1074"/>
      <point x="844" y="1090"/>
      <point x="861" y="1090" type="curve" smooth="yes"/>
      <point x="1252" y="1090" type="line" smooth="yes"/>
      <point x="1397" y="1090"/>
      <point x="1566" y="1083"/>
      <point x="1566" y="938" type="curve" smooth="yes"/>
      <point x="1566" y="832"/>
      <point x="1475" y="789"/>
      <point x="1344" y="789" type="curve" smooth="yes"/>
    </contour>
    <contour>
      <point x="235" y="0" type="curve" smooth="yes"/>
      <point x="751" y="0" type="line" smooth="yes"/>
      <point x="794" y="0"/>
      <point x="827" y="33"/>
      <point x="827" y="76" type="curve" smooth="yes"/>
      <point x="827" y="467" type="line" smooth="yes"/>
      <point x="827" y="484"/>
      <point x="844" y="502"/>
      <point x="861" y="502" type="curve" smooth="yes"/>
      <point x="1260" y="502" type="line" smooth="yes"/>
      <point x="1370" y="502"/>
      <point x="1432" y="502"/>
      <point x="1482" y="411" type="curve"/>
      <point x="1523" y="339"/>
      <point x="1554" y="148"/>
      <point x="1569" y="68" type="curve"/>
      <point x="1581" y="17"/>
      <point x="1603" y="0"/>
      <point x="1663" y="0" type="curve" smooth="yes"/>
      <point x="2198" y="0" type="line" smooth="yes"/>
      <point x="2226.53" y="0"/>
      <point x="2242.36" y="18.6367"/>
      <point x="2242.36" y="43.4346" type="curve" smooth="yes"/>
      <point x="2242.36" y="45.5801"/>
      <point x="2242.24" y="47.7705"/>
      <point x="2242" y="50" type="curve"/>
      <point x="2242" y="69"/>
      <point x="2223.43" y="158.806"/>
      <point x="2212" y="209" type="curve" smooth="yes"/>
      <point x="2156" y="455"/>
      <point x="2080" y="603"/>
      <point x="1855" y="643" type="curve" smooth="yes"/>
      <point x="1851" y="643"/>
      <point x="1850" y="645"/>
      <point x="1850" y="647" type="curve" smooth="yes"/>
      <point x="1850" y="649"/>
      <point x="1852" y="651"/>
      <point x="1855" y="652" type="curve" smooth="yes"/>
      <point x="2073" y="681"/>
      <point x="2251" y="787"/>
      <point x="2251" y="1012" type="curve" smooth="yes"/>
      <point x="2251" y="1435"/>
      <point x="1850" y="1438"/>
      <point x="1341" y="1438" type="curve" smooth="yes"/>
      <point x="235" y="1438" type="line" smooth="yes"/>
      <point x="192" y="1438"/>
      <point x="159" y="1406"/>
      <point x="159" y="1363" type="curve" smooth="yes"/>
      <point x="159" y="76" type="line" smooth="yes"/>
      <point x="159" y="33"/>
      <point x="192" y="0"/>
    </contour>
  </outline>
</glyph>
<glyph name="X" format="1">
  <advance width="2403"/>
  <unicode hex="0058"/>
  <outline>
    <contour>
      <point x="149" y="0" type="curve" smooth="yes"/>
      <point x="582" y="0" type="line" smooth="yes"/>
      <point x="628" y="0"/>
      <point x="679" y="21"/>
      <point x="715" y="53" type="curve" smooth="yes"/>
      <point x="1106" y="405" type="line"/>
      <point x="1449" y="57" type="line" smooth="yes"/>
      <point x="1484" y="22"/>
      <point x="1534" y="0"/>
      <point x="1581" y="0" type="curve" smooth="yes"/>
      <point x="2259" y="0" type="line" smooth="yes"/>
      <point x="2279" y="0"/>
      <point x="2292" y="15"/>
      <point x="2292" y="31" type="curve" smooth="yes"/>
      <point x="2292" y="39"/>
      <point x="2287" y="48"/>
      <point x="2279" y="57" type="curve" smooth="yes"/>
      <point x="1559" y="808" type="line"/>
      <point x="2204" y="1385" type="line" smooth="yes"/>
      <point x="2212" y="1393"/>
      <point x="2216" y="1402"/>
      <point x="2216" y="1410" type="curve" smooth="yes"/>
      <point x="2216" y="1424"/>
      <point x="2204" y="1438"/>
      <point x="2186" y="1438" type="curve" smooth="yes"/>
      <point x="1748" y="1438" type="line" smooth="yes"/>
      <point x="1702" y="1438"/>
      <point x="1651" y="1417"/>
      <point x="1615" y="1385" type="curve" smooth="yes"/>
      <point x="1288" y="1089" type="line"/>
      <point x="1007" y="1381" type="line" smooth="yes"/>
      <point x="973" y="1416"/>
      <point x="923" y="1438"/>
      <point x="877" y="1438" type="curve" smooth="yes"/>
      <point x="164" y="1438" type="line" smooth="yes"/>
      <point x="144" y="1438"/>
      <point x="132" y="1424"/>
      <point x="132" y="1408" type="curve" smooth="yes"/>
      <point x="132" y="1400"/>
      <point x="136" y="1390"/>
      <point x="144" y="1381" type="curve" smooth="yes"/>
      <point x="832" y="683" type="line"/>
      <point x="131" y="53" type="line" smooth="yes"/>
      <point x="123" y="45"/>
      <point x="119" y="36"/>
      <point x="119" y="29" type="curve" smooth="yes"/>
      <point x="119" y="14"/>
      <point x="131" y="0"/>
    </contour>
  </outline>
</glyph>
<glyph name="bracketleft" format="1">
  <advance width="1384"/>
  <unicode hex="005B"/>
  <outline>
    <contour>
      <point x="238" y="-174" type="curve" smooth="yes"/>
      <point x="1179" y="-174" type="line" smooth="yes"/>
      <point x="1222" y="-174"/>
      <point x="1254" y="-143"/>
      <point x="1254" y="-100" type="curve" smooth="yes"/>
      <point x="1254" y="102" type="line" smooth="yes"/>
      <point x="1254" y="145"/>
      <point x="1222" y="176"/>
      <point x="1179" y="176" type="curve" smooth="yes"/>
      <point x="802" y="176" type="line" smooth="yes"/>
      <point x="782" y="176"/>
      <point x="766" y="192"/>
      <point x="766" y="212" type="curve" smooth="yes"/>
      <point x="766" y="1251" type="line" smooth="yes"/>
      <point x="766" y="1271"/>
      <point x="782" y="1286"/>
      <point x="802" y="1286" type="curve" smooth="yes"/>
      <point x="1179" y="1286" type="line" smooth="yes"/>
      <point x="1222" y="1286"/>
      <point x="1254" y="1317"/>
      <point x="1254" y="1360" type="curve" smooth="yes"/>
      <point x="1254" y="1564" type="line" smooth="yes"/>
      <point x="1254" y="1607"/>
      <point x="1222" y="1638"/>
      <point x="1179" y="1638" type="curve" smooth="yes"/>
      <point x="238" y="1638" type="line" smooth="yes"/>
      <point x="195" y="1638"/>
      <point x="161" y="1604"/>
      <point x="161" y="1561" type="curve" smooth="yes"/>
      <point x="161" y="-97" type="line" smooth="yes"/>
      <point x="161" y="-140"/>
      <point x="195" y="-174"/>
    </contour>
  </outline>
</glyph>
<glyph name="backslash" format="1">
  <advance width="1399"/>
  <unicode hex="005C"/>
  <outline>
    <contour>
      <point x="807" y="-216" type="curve" smooth="yes"/>
      <point x="1285" y="-215" type="line" smooth="yes"/>
      <point x="1299.81" y="-215"/>
      <point x="1310.56" y="-202.812"/>
      <point x="1310.56" y="-189.021" type="curve" smooth="yes"/>
      <point x="1310.56" y="-186.054"/>
      <point x="1310.06" y="-183.011"/>
      <point x="1309" y="-180" type="curve" smooth="yes"/>
      <point x="621" y="1603" type="line"/>
      <point x="614" y="1624"/>
      <point x="593" y="1638"/>
      <point x="571" y="1638" type="curve" smooth="yes"/>
      <point x="94" y="1638" type="line" smooth="yes"/>
      <point x="79.1885" y="1638"/>
      <point x="68.4395" y="1625.81"/>
      <point x="68.4395" y="1612.02" type="curve" smooth="yes"/>
      <point x="68.4395" y="1609.05"/>
      <point x="68.9375" y="1606.01"/>
      <point x="70" y="1603" type="curve" smooth="yes"/>
      <point x="757" y="-181" type="line" smooth="yes"/>
      <point x="765" y="-202"/>
      <point x="785" y="-216.046"/>
    </contour>
  </outline>
</glyph>
<glyph name="bracketright" format="1">
  <advance width="1385"/>
  <unicode hex="005D"/>
  <outline>
    <contour>
      <point x="206" y="-174" type="curve" smooth="yes"/>
      <point x="1147" y="-174" type="line" smooth="yes"/>
      <point x="1190" y="-174"/>
      <point x="1224" y="-140"/>
      <point x="1224" y="-97" type="curve" smooth="yes"/>
      <point x="1224" y="1561" type="line" smooth="yes"/>
      <point x="1224" y="1604"/>
      <point x="1190" y="1638"/>
      <point x="1147" y="1638" type="curve" smooth="yes"/>
      <point x="206" y="1638" type="line" smooth="yes"/>
      <point x="163" y="1638"/>
      <point x="130" y="1607"/>
      <point x="130" y="1564" type="curve" smooth="yes"/>
      <point x="130" y="1362" type="line" smooth="yes"/>
      <point x="130" y="1319"/>
      <point x="163" y="1288"/>
      <point x="206" y="1288" type="curve" smooth="yes"/>
      <point x="583" y="1288" type="line" smooth="yes"/>
      <point x="603" y="1288"/>
      <point x="618" y="1272"/>
      <point x="618" y="1252" type="curve" smooth="yes"/>
      <point x="618" y="213" type="line" smooth="yes"/>
      <point x="618" y="193"/>
      <point x="603" y="178"/>
      <point x="583" y="178" type="curve" smooth="yes"/>
      <point x="206" y="178" type="line" smooth="yes"/>
      <point x="163" y="178"/>
      <point x="130" y="147"/>
      <point x="130" y="104" type="curve" smooth="yes"/>
      <point x="130" y="-100" type="line" smooth="yes"/>
      <point x="130" y="-143"/>
      <point x="163" y="-174"/>
    </contour>
  </outline>
</glyph>
<glyph name="c" format="1">
  <advance width="1798"/>
  <unicode hex="0063"/>
  <outline>
    <contour>
      <point x="1007" y="-41" type="curve" smooth="yes"/>
      <point x="1215" y="-41"/>
      <point x="1435" y="-6"/>
      <point x="1596" y="49" type="curve" smooth="yes"/>
      <point x="1627.57" y="59.2601"/>
      <point x="1646.06" y="86.3386"/>
      <point x="1646.06" y="115.487" type="curve" smooth="yes"/>
      <point x="1646.06" y="123.271"/>
      <point x="1644.74" y="131.202"/>
      <point x="1642" y="139" type="curve" smooth="yes"/>
      <point x="1638" y="149"/>
      <point x="1605" y="246"/>
      <point x="1602" y="253" type="curve" smooth="yes"/>
      <point x="1591.82" y="283.526"/>
      <point x="1566.95" y="301.186"/>
      <point x="1536.48" y="301.186" type="curve" smooth="yes"/>
      <point x="1528.02" y="301.186"/>
      <point x="1519.13" y="299.825"/>
      <point x="1510" y="297" type="curve" smooth="yes"/>
      <point x="1405" y="265"/>
      <point x="1250" y="231"/>
      <point x="1104" y="231" type="curve" smooth="yes"/>
      <point x="888" y="231"/>
      <point x="700" y="300"/>
      <point x="700" y="509" type="curve" smooth="yes"/>
      <point x="700" y="710"/>
      <point x="878" y="778"/>
      <point x="1075" y="778" type="curve" smooth="yes"/>
      <point x="1228" y="778"/>
      <point x="1387" y="738"/>
      <point x="1500" y="699" type="curve" smooth="yes"/>
      <point x="1509.61" y="695.796"/>
      <point x="1519.29" y="694.171"/>
      <point x="1528.66" y="694.171" type="curve" smooth="yes"/>
      <point x="1557.32" y="694.171"/>
      <point x="1583.19" y="709.353"/>
      <point x="1596" y="741" type="curve"/>
      <point x="1608" y="775"/>
      <point x="1624" y="818"/>
      <point x="1637" y="852" type="curve" smooth="yes"/>
      <point x="1640.04" y="859.81"/>
      <point x="1641.47" y="868.045"/>
      <point x="1641.47" y="876.314" type="curve" smooth="yes"/>
      <point x="1641.47" y="906.161"/>
      <point x="1622.76" y="936.471"/>
      <point x="1593" y="949" type="curve" smooth="yes"/>
      <point x="1437" y="1013"/>
      <point x="1215" y="1053"/>
      <point x="996" y="1053" type="curve" smooth="yes"/>
      <point x="574" y="1053"/>
      <point x="130" y="910"/>
      <point x="130" y="509" type="curve" smooth="yes"/>
      <point x="130" y="96"/>
      <point x="573" y="-41"/>
    </contour>
  </outline>
</glyph>
<glyph name="e" format="1">
  <advance width="1900"/>
  <unicode hex="0065"/>
  <outline>
    <contour>
      <point x="718" y="615" type="line" smooth="yes"/>
      <point x="706" y="615"/>
      <point x="707" y="631"/>
      <point x="707" y="644" type="curve"/>
      <point x="717" y="753"/>
      <point x="843" y="835"/>
      <point x="994" y="835" type="curve" smooth="yes"/>
      <point x="1161" y="835"/>
      <point x="1257" y="747"/>
      <point x="1272" y="639" type="curve"/>
      <point x="1272" y="628"/>
      <point x="1273" y="615"/>
      <point x="1261" y="615" type="curve" smooth="yes"/>
    </contour>
    <contour>
      <point x="1041" y="-41" type="curve" smooth="yes"/>
      <point x="1181" y="-41"/>
      <point x="1493" y="1"/>
      <point x="1644" y="50" type="curve" smooth="yes"/>
      <point x="1679.64" y="61.4545"/>
      <point x="1691.16" y="85.6878"/>
      <point x="1691.16" y="114.148" type="curve" smooth="yes"/>
      <point x="1691.16" y="152.772"/>
      <point x="1669.94" y="199.182"/>
      <point x="1659" y="232" type="curve" smooth="yes"/>
      <point x="1648.84" y="261.712"/>
      <point x="1624" y="279.196"/>
      <point x="1593.57" y="279.196" type="curve" smooth="yes"/>
      <point x="1585.08" y="279.196"/>
      <point x="1576.16" y="277.836"/>
      <point x="1567" y="275" type="curve" smooth="yes"/>
      <point x="1462" y="243"/>
      <point x="1269" y="210"/>
      <point x="1109" y="210" type="curve" smooth="yes"/>
      <point x="909" y="210"/>
      <point x="705" y="262"/>
      <point x="705" y="419" type="curve" smooth="yes"/>
      <point x="705" y="434"/>
      <point x="714" y="449"/>
      <point x="729" y="449" type="curve" smooth="yes"/>
      <point x="1714" y="449" type="line" smooth="yes"/>
      <point x="1747" y="449"/>
      <point x="1764" y="469"/>
      <point x="1766" y="490" type="curve" smooth="yes"/>
      <point x="1766" y="500"/>
      <point x="1767" y="521"/>
      <point x="1767" y="533" type="curve" smooth="yes"/>
      <point x="1760" y="918"/>
      <point x="1351" y="1053"/>
      <point x="985" y="1053" type="curve" smooth="yes"/>
      <point x="599" y="1053"/>
      <point x="132" y="954"/>
      <point x="132" y="504" type="curve" smooth="yes"/>
      <point x="132" y="44"/>
      <point x="650" y="-41"/>
    </contour>
  </outline>
</glyph>
<glyph name="g" format="1">
  <advance width="1761"/>
  <unicode hex="0067"/>
  <outline>
    <contour>
      <point x="844" y="518" type="curve" smooth="yes"/>
      <point x="664" y="518"/>
      <point x="591" y="592"/>
      <point x="591" y="679" type="curve" smooth="yes"/>
      <point x="591" y="758"/>
      <point x="660" y="832"/>
      <point x="843" y="832" type="curve" smooth="yes"/>
      <point x="1022" y="832"/>
      <point x="1098" y="754"/>
      <point x="1098" y="667" type="curve" smooth="yes"/>
      <point x="1098" y="588"/>
      <point x="1030" y="518"/>
    </contour>
    <contour>
      <point x="849" y="-437" type="curve" smooth="yes"/>
      <point x="631" y="-437"/>
      <point x="539" y="-389"/>
      <point x="539" y="-340" type="curve" smooth="yes"/>
      <point x="539" y="-302"/>
      <point x="647" y="-204"/>
      <point x="674" y="-204" type="curve" smooth="yes"/>
      <point x="1099" y="-204" type="line" smooth="yes"/>
      <point x="1216" y="-204"/>
      <point x="1288" y="-262"/>
      <point x="1288" y="-314" type="curve" smooth="yes"/>
      <point x="1288" y="-375"/>
      <point x="1268" y="-437"/>
    </contour>
    <contour>
      <point x="864" y="-732" type="curve" smooth="yes"/>
      <point x="1507" y="-732"/>
      <point x="1655" y="-534"/>
      <point x="1655" y="-281" type="curve" smooth="yes"/>
      <point x="1655" y="-69"/>
      <point x="1524" y="130"/>
      <point x="1073" y="130" type="curve" smooth="yes"/>
      <point x="769" y="130" type="line" smooth="yes"/>
      <point x="580" y="130"/>
      <point x="488" y="143"/>
      <point x="488" y="204" type="curve" smooth="yes"/>
      <point x="488" y="222"/>
      <point x="499" y="261"/>
      <point x="511" y="278" type="curve"/>
      <point x="521" y="294"/>
      <point x="548" y="308"/>
      <point x="566" y="304" type="curve" smooth="yes"/>
      <point x="649" y="286"/>
      <point x="759" y="275"/>
      <point x="884" y="275" type="curve" smooth="yes"/>
      <point x="1387" y="275"/>
      <point x="1537" y="465"/>
      <point x="1537" y="675" type="curve" smooth="yes"/>
      <point x="1537" y="804"/>
      <point x="1428" y="913"/>
      <point x="1268" y="976" type="curve"/>
      <point x="1251" y="984"/>
      <point x="1244" y="1005"/>
      <point x="1254" y="1021" type="curve" smooth="yes"/>
      <point x="1442" y="1316" type="line" smooth="yes"/>
      <point x="1446.66" y="1322.99"/>
      <point x="1448.77" y="1330.65"/>
      <point x="1448.77" y="1338.17" type="curve" smooth="yes"/>
      <point x="1448.77" y="1359.68"/>
      <point x="1431.46" y="1380"/>
      <point x="1407" y="1380" type="curve" smooth="yes"/>
      <point x="1190" y="1380" type="line" smooth="yes"/>
      <point x="1146" y="1380"/>
      <point x="1109.7" y="1347.64"/>
      <point x="1100" y="1306" type="curve" smooth="yes"/>
      <point x="1045" y="1070" type="line" smooth="yes"/>
      <point x="1041" y="1051"/>
      <point x="1021" y="1036"/>
      <point x="1001" y="1039" type="curve" smooth="yes"/>
      <point x="954" y="1044"/>
      <point x="903" y="1053"/>
      <point x="844" y="1053" type="curve" smooth="yes"/>
      <point x="327" y="1053"/>
      <point x="143" y="875"/>
      <point x="143" y="675" type="curve" smooth="yes"/>
      <point x="143" y="577"/>
      <point x="205" y="474"/>
      <point x="306" y="397" type="curve" smooth="yes"/>
      <point x="313" y="392"/>
      <point x="317" y="386"/>
      <point x="317" y="379" type="curve" smooth="yes"/>
      <point x="317" y="371"/>
      <point x="312" y="363"/>
      <point x="303" y="358" type="curve" smooth="yes"/>
      <point x="217" y="305"/>
      <point x="151" y="207"/>
      <point x="151" y="105" type="curve" smooth="yes"/>
      <point x="151" y="8"/>
      <point x="232" y="-85"/>
      <point x="354" y="-138" type="curve" smooth="yes"/>
      <point x="361" y="-142"/>
      <point x="367" y="-147"/>
      <point x="367" y="-154" type="curve" smooth="yes"/>
      <point x="367" y="-159"/>
      <point x="362" y="-166"/>
      <point x="356" y="-169" type="curve" smooth="yes"/>
      <point x="228" y="-248"/>
      <point x="164" y="-388"/>
      <point x="164" y="-472" type="curve" smooth="yes"/>
      <point x="164" y="-621"/>
      <point x="384" y="-732"/>
    </contour>
  </outline>
</glyph>
<glyph name="r" format="1">
  <advance width="1362"/>
  <unicode hex="0072"/>
  <outline>
    <contour>
      <point x="229" y="0" type="curve" smooth="yes"/>
      <point x="627" y="0" type="line" smooth="yes"/>
      <point x="670" y="0"/>
      <point x="702" y="33"/>
      <point x="702" y="76" type="curve" smooth="yes"/>
      <point x="702" y="466" type="line" smooth="yes"/>
      <point x="702" y="572"/>
      <point x="780" y="742"/>
      <point x="997" y="742" type="curve" smooth="yes"/>
      <point x="1181" y="742" type="line" smooth="yes"/>
      <point x="1218" y="742"/>
      <point x="1229" y="774"/>
      <point x="1229" y="807" type="curve" smooth="yes"/>
      <point x="1229" y="990" type="line" smooth="yes"/>
      <point x="1229" y="1026"/>
      <point x="1204" y="1053"/>
      <point x="1083" y="1053" type="curve" smooth="yes"/>
      <point x="882.365" y="1053"/>
      <point x="709.995" y="995.171"/>
      <point x="558" y="813" type="curve" smooth="yes"/>
      <point x="552" y="806"/>
      <point x="545" y="801"/>
      <point x="537" y="801" type="curve" smooth="yes"/>
      <point x="529" y="801"/>
      <point x="521" y="806"/>
      <point x="516" y="814" type="curve" smooth="yes"/>
      <point x="438" y="942" type="line" smooth="yes"/>
      <point x="414" y="983"/>
      <point x="397" y="1006"/>
      <point x="350" y="1006" type="curve" smooth="yes"/>
      <point x="210" y="1006" type="line" smooth="yes"/>
      <point x="167" y="1006"/>
      <point x="153" y="972"/>
      <point x="153" y="929" type="curve" smooth="yes"/>
      <point x="153" y="76" type="line" smooth="yes"/>
      <point x="153" y="33"/>
      <point x="186" y="0"/>
    </contour>
  </outline>
</glyph>
<glyph name="sterling" format="1">
  <advance width="2201"/>
  <unicode hex="00A3"/>
  <outline>
    <contour>
      <point x="220" y="0" type="curve" smooth="yes"/>
      <point x="1987" y="0" type="line" smooth="yes"/>
      <point x="2019" y="0"/>
      <point x="2049" y="19"/>
      <point x="2049" y="54" type="curve" smooth="yes"/>
      <point x="2049" y="195" type="line" smooth="yes"/>
      <point x="2049" y="237"/>
      <point x="2019" y="256"/>
      <point x="1987" y="256" type="curve" smooth="yes"/>
      <point x="1178" y="256" type="line" smooth="yes"/>
      <point x="1063" y="256"/>
      <point x="1060" y="270"/>
      <point x="1060" y="356" type="curve" smooth="yes"/>
      <point x="1060" y="603" type="line"/>
      <point x="1462" y="603" type="line" smooth="yes"/>
      <point x="1505" y="603"/>
      <point x="1536" y="635"/>
      <point x="1536" y="678" type="curve" smooth="yes"/>
      <point x="1536" y="768" type="line" smooth="yes"/>
      <point x="1536" y="811"/>
      <point x="1505" y="843"/>
      <point x="1462" y="843" type="curve" smooth="yes"/>
      <point x="1062" y="843" type="line"/>
      <point x="1062" y="906" type="line"/>
      <point x="1061" y="1135"/>
      <point x="1193" y="1164"/>
      <point x="1452" y="1164" type="curve" smooth="yes"/>
      <point x="1634" y="1164"/>
      <point x="1928" y="1105"/>
      <point x="1967" y="1098" type="curve" smooth="yes"/>
      <point x="1976" y="1096"/>
      <point x="1983" y="1095"/>
      <point x="1990" y="1095" type="curve" smooth="yes"/>
      <point x="2016" y="1095"/>
      <point x="2029" y="1108"/>
      <point x="2034" y="1139" type="curve" smooth="yes"/>
      <point x="2042.37" y="1203.19"/>
      <point x="2059" y="1270.38"/>
      <point x="2059" y="1336" type="curve" smooth="yes"/>
      <point x="2059" y="1366"/>
      <point x="2043" y="1383"/>
      <point x="2006" y="1393" type="curve" smooth="yes"/>
      <point x="1893" y="1426"/>
      <point x="1610" y="1475"/>
      <point x="1371" y="1475" type="curve" smooth="yes"/>
      <point x="669" y="1475"/>
      <point x="411" y="1265"/>
      <point x="354" y="843" type="curve"/>
      <point x="220" y="843" type="line" smooth="yes"/>
      <point x="177" y="843"/>
      <point x="146" y="811"/>
      <point x="146" y="768" type="curve" smooth="yes"/>
      <point x="146" y="678" type="line" smooth="yes"/>
      <point x="146" y="635"/>
      <point x="177" y="603"/>
      <point x="220" y="603" type="curve" smooth="yes"/>
      <point x="338" y="603" type="line" smooth="yes"/>
      <point x="363" y="603"/>
      <point x="370" y="587"/>
      <point x="370" y="560" type="curve" smooth="yes"/>
      <point x="370" y="314" type="line" smooth="yes"/>
      <point x="370" y="271"/>
      <point x="367" y="256"/>
      <point x="338" y="256" type="curve" smooth="yes"/>
      <point x="220" y="256" type="line" smooth="yes"/>
      <point x="177" y="256"/>
      <point x="146" y="224"/>
      <point x="146" y="181" type="curve" smooth="yes"/>
      <point x="146" y="75" type="line" smooth="yes"/>
      <point x="146" y="32"/>
      <point x="177" y="0"/>
    </contour>
  </outline>
</glyph>
<glyph name="dieresis" format="1">
  <advance width="1265"/>
  <unicode hex="00A8"/>
  <outline>
    <contour>
      <point x="893" y="1200" type="curve" smooth="yes"/>
      <point x="1037" y="1200" type="line" smooth="yes"/>
      <point x="1080" y="1200"/>
      <point x="1114" y="1234"/>
      <point x="1114" y="1277" type="curve" smooth="yes"/>
      <point x="1114" y="1407" type="line" smooth="yes"/>
      <point x="1114" y="1450"/>
      <point x="1080" y="1484"/>
      <point x="1037" y="1484" type="curve" smooth="yes"/>
      <point x="893" y="1484" type="line" smooth="yes"/>
      <point x="850" y="1484"/>
      <point x="816" y="1450"/>
      <point x="816" y="1407" type="curve" smooth="yes"/>
      <point x="816" y="1277" type="line" smooth="yes"/>
      <point x="816" y="1234"/>
      <point x="850" y="1200"/>
    </contour>
    <contour>
      <point x="228" y="1200" type="curve" smooth="yes"/>
      <point x="372" y="1200" type="line" smooth="yes"/>
      <point x="415" y="1200"/>
      <point x="449" y="1234"/>
      <point x="449" y="1277" type="curve" smooth="yes"/>
      <point x="449" y="1407" type="line" smooth="yes"/>
      <point x="449" y="1450"/>
      <point x="415" y="1484"/>
      <point x="372" y="1484" type="curve" smooth="yes"/>
      <point x="228" y="1484" type="line" smooth="yes"/>
      <point x="185" y="1484"/>
      <point x="151" y="1450"/>
      <point x="151" y="1407" type="curve" smooth="yes"/>
      <point x="151" y="1277" type="line" smooth="yes"/>
      <point x="151" y="1234"/>
      <point x="185" y="1200"/>
    </contour>
  </outline>
</glyph>
<glyph name="cedilla" format="1">
  <advance width="716"/>
  <unicode hex="00B8"/>
  <outline>
    <contour>
      <point x="235" y="-373" type="line" smooth="yes"/>
      <point x="193" y="-373"/>
      <point x="185" y="-422"/>
      <point x="185" y="-464" type="curve" smooth="yes"/>
      <point x="185" y="-572"/>
      <point x="289" y="-642"/>
      <point x="403" y="-642" type="curve" smooth="yes"/>
      <point x="547" y="-642"/>
      <point x="654" y="-569"/>
      <point x="654" y="-391" type="curve" smooth="yes"/>
      <point x="654" y="-280"/>
      <point x="573" y="-156"/>
      <point x="465" y="-156" type="curve" smooth="yes"/>
      <point x="363" y="-156" type="line" smooth="yes"/>
      <point x="350" y="-156"/>
      <point x="347" y="-163"/>
      <point x="347" y="-173" type="curve" smooth="yes"/>
      <point x="347" y="-244" type="line" smooth="yes"/>
      <point x="347" y="-255"/>
      <point x="363" y="-254"/>
      <point x="363" y="-254" type="curve"/>
      <point x="402" y="-254" type="line" smooth="yes"/>
      <point x="452" y="-254"/>
      <point x="483" y="-331"/>
      <point x="483" y="-407" type="curve" smooth="yes"/>
      <point x="483" y="-499"/>
      <point x="457" y="-532"/>
      <point x="410" y="-532" type="curve" smooth="yes"/>
      <point x="360" y="-532"/>
      <point x="338" y="-493"/>
      <point x="338" y="-451" type="curve" smooth="yes"/>
      <point x="338" y="-436.15"/>
      <point x="341.645" y="-418.87"/>
      <point x="341.645" y="-404.354" type="curve" smooth="yes"/>
      <point x="341.645" y="-386.612"/>
      <point x="336.2" y="-373"/>
      <point x="312" y="-373" type="curve" smooth="yes"/>
    </contour>
  </outline>
</glyph>
<glyph name="guillemotright" format="1">
  <advance width="1460"/>
  <unicode hex="00BB"/>
  <outline>
    <contour>
      <point x="790" y="29" type="curve" smooth="yes"/>
      <point x="806" y="29"/>
      <point x="825" y="36"/>
      <point x="848" y="49" type="curve"/>
      <point x="1231" y="297" type="line"/>
      <point x="1301" y="344"/>
      <point x="1327" y="394"/>
      <point x="1327" y="459" type="curve" smooth="yes"/>
      <point x="1327" y="613" type="line" smooth="yes"/>
      <point x="1327" y="677"/>
      <point x="1301" y="716"/>
      <point x="1231" y="763" type="curve" smooth="yes"/>
      <point x="848" y="1016" type="line" smooth="yes"/>
      <point x="825" y="1031"/>
      <point x="805" y="1036"/>
      <point x="790" y="1036" type="curve" smooth="yes"/>
      <point x="753" y="1036"/>
      <point x="734" y="1006"/>
      <point x="734" y="986" type="curve" smooth="yes"/>
      <point x="734" y="883" type="line" smooth="yes"/>
      <point x="734" y="820"/>
      <point x="742" y="794"/>
      <point x="794" y="743" type="curve"/>
      <point x="1043" y="564" type="line"/>
      <point x="1055" y="553"/>
      <point x="1060" y="545"/>
      <point x="1060" y="530" type="curve" smooth="yes"/>
      <point x="1060" y="515"/>
      <point x="1056" y="509"/>
      <point x="1043" y="497" type="curve"/>
      <point x="794" y="320" type="line"/>
      <point x="741" y="268"/>
      <point x="734" y="241"/>
      <point x="734" y="177" type="curve" smooth="yes"/>
      <point x="734" y="79" type="line" smooth="yes"/>
      <point x="734" y="60"/>
      <point x="753" y="29"/>
    </contour>
    <contour>
      <point x="205" y="29" type="curve" smooth="yes"/>
      <point x="220" y="29"/>
      <point x="240" y="36"/>
      <point x="263" y="49" type="curve"/>
      <point x="646" y="297" type="line"/>
      <point x="716" y="344"/>
      <point x="742" y="394"/>
      <point x="742" y="459" type="curve" smooth="yes"/>
      <point x="742" y="613" type="line" smooth="yes"/>
      <point x="742" y="677"/>
      <point x="716" y="716"/>
      <point x="646" y="763" type="curve" smooth="yes"/>
      <point x="263" y="1016" type="line" smooth="yes"/>
      <point x="240" y="1031"/>
      <point x="220" y="1036"/>
      <point x="205" y="1036" type="curve" smooth="yes"/>
      <point x="167" y="1036"/>
      <point x="149" y="1006"/>
      <point x="149" y="986" type="curve" smooth="yes"/>
      <point x="149" y="883" type="line" smooth="yes"/>
      <point x="149" y="820"/>
      <point x="157" y="794"/>
      <point x="209" y="743" type="curve"/>
      <point x="458" y="564" type="line"/>
      <point x="470" y="553"/>
      <point x="475" y="545"/>
      <point x="475" y="530" type="curve" smooth="yes"/>
      <point x="475" y="515"/>
      <point x="471" y="509"/>
      <point x="458" y="497" type="curve"/>
      <point x="209" y="320" type="line"/>
      <point x="156" y="268"/>
      <point x="149" y="241"/>
      <point x="149" y="177" type="curve" smooth="yes"/>
      <point x="149" y="79" type="line" smooth="yes"/>
      <point x="149" y="60"/>
      <point x="167" y="29"/>
    </contour>
  </outline>
</glyph>
<glyph name="onehalf" format="1">
  <advance width="3666"/>
  <unicode hex="00BD"/>
  <outline>
    <contour>
      <point x="1204" y="-206" type="curve" smooth="yes"/>
      <point x="1223" y="-206"/>
      <point x="1261" y="-195"/>
      <point x="1270" y="-178" type="curve"/>
      <point x="1276" y="-178"/>
      <point x="2160" y="1620"/>
      <point x="2155" y="1620" type="curve"/>
      <point x="2160" y="1632"/>
      <point x="2140" y="1645"/>
      <point x="2115" y="1646" type="curve" smooth="yes"/>
      <point x="2102" y="1647"/>
      <point x="1856" y="1648"/>
      <point x="1855" y="1648" type="curve" smooth="yes"/>
      <point x="1836" y="1648"/>
      <point x="1799" y="1637"/>
      <point x="1790" y="1620" type="curve"/>
      <point x="1785" y="1620"/>
      <point x="899" y="-176"/>
      <point x="905" y="-176" type="curve"/>
      <point x="899" y="-188"/>
      <point x="919" y="-202"/>
      <point x="944" y="-203" type="curve" smooth="yes"/>
      <point x="957" y="-204"/>
      <point x="1203" y="-206"/>
    </contour>
    <contour>
      <point x="493" y="431" type="curve" smooth="yes"/>
      <point x="881" y="431" type="line" smooth="yes"/>
      <point x="911" y="431"/>
      <point x="934" y="454"/>
      <point x="934" y="484" type="curve" smooth="yes"/>
      <point x="934" y="1384" type="line" smooth="yes"/>
      <point x="934" y="1415"/>
      <point x="911" y="1437"/>
      <point x="881" y="1437" type="curve"/>
      <point x="266" y="1381" type="line"/>
      <point x="236" y="1381"/>
      <point x="213" y="1359"/>
      <point x="213" y="1329" type="curve" smooth="yes"/>
      <point x="213" y="1189" type="line" smooth="yes"/>
      <point x="213" y="1159"/>
      <point x="236" y="1136"/>
      <point x="266" y="1136" type="curve"/>
      <point x="414" y="1151" type="line"/>
      <point x="428" y="1151"/>
      <point x="440" y="1139"/>
      <point x="440" y="1125" type="curve" smooth="yes"/>
      <point x="440" y="484" type="line" smooth="yes"/>
      <point x="440" y="454"/>
      <point x="463" y="431"/>
    </contour>
    <contour>
      <point x="2462" y="0" type="curve" smooth="yes"/>
      <point x="2470" y="0"/>
      <point x="3327" y="3"/>
      <point x="3327" y="13" type="curve"/>
      <point x="3349" y="13"/>
      <point x="3356" y="50"/>
      <point x="3356" y="74" type="curve" smooth="yes"/>
      <point x="3356" y="84"/>
      <point x="3352" y="184"/>
      <point x="3345" y="184" type="curve"/>
      <point x="3345" y="207"/>
      <point x="3093" y="216"/>
      <point x="3076" y="216" type="curve" smooth="yes"/>
      <point x="3069" y="216"/>
      <point x="2578" y="219"/>
      <point x="2577" y="223" type="curve"/>
      <point x="2558" y="228"/>
      <point x="2550" y="239"/>
      <point x="2553" y="254" type="curve"/>
      <point x="2617" y="352"/>
      <point x="2837" y="285"/>
      <point x="2839" y="427" type="curve"/>
      <point x="3011.3" y="545.606"/>
      <point x="3224.06" y="544.757"/>
      <point x="3224.06" y="691.056" type="curve" smooth="yes"/>
      <point x="3224.06" y="727.313"/>
      <point x="3210.99" y="772.609"/>
      <point x="3181" y="831" type="curve"/>
      <point x="3119.61" y="986.132"/>
      <point x="2913.7" y="1019.45"/>
      <point x="2670.03" y="1019.45" type="curve" smooth="yes"/>
      <point x="2619.97" y="1019.45"/>
      <point x="2568.32" y="1018.05"/>
      <point x="2516" y="1016" type="curve"/>
      <point x="2379" y="1013"/>
      <point x="2188" y="973"/>
      <point x="2112" y="931" type="curve"/>
      <point x="2103.13" y="927.199"/>
      <point x="2099.08" y="915.372"/>
      <point x="2099.08" y="899.077" type="curve" smooth="yes"/>
      <point x="2099.08" y="889.65"/>
      <point x="2100.43" y="878.728"/>
      <point x="2103" y="867" type="curve" smooth="yes"/>
      <point x="2105" y="860"/>
      <point x="2126" y="787"/>
      <point x="2151" y="754" type="curve"/>
      <point x="2157" y="743"/>
      <point x="2170" y="740"/>
      <point x="2192" y="741" type="curve"/>
      <point x="2205" y="743"/>
      <point x="2290" y="767"/>
      <point x="2365" y="770" type="curve" smooth="yes"/>
      <point x="2436.18" y="772.847"/>
      <point x="2572.21" y="791.4"/>
      <point x="2703.13" y="791.4" type="curve" smooth="yes"/>
      <point x="2756.14" y="791.4"/>
      <point x="2808.31" y="788.358"/>
      <point x="2855" y="780" type="curve"/>
      <point x="2883.41" y="764.878"/>
      <point x="2894.86" y="755.56"/>
      <point x="2894.86" y="748.472" type="curve" smooth="yes"/>
      <point x="2894.86" y="720.873"/>
      <point x="2721.28" y="727.064"/>
      <point x="2699" y="556" type="curve"/>
      <point x="2699" y="445"/>
      <point x="2094" y="568"/>
      <point x="2052" y="129" type="curve"/>
      <point x="2052" y="112"/>
      <point x="2053" y="51"/>
      <point x="2066" y="46" type="curve"/>
      <point x="2066" y="18"/>
      <point x="2429" y="0"/>
    </contour>
  </outline>
</glyph>
<glyph name="lslash" format="1">
  <advance width="931"/>
  <unicode hex="0142"/>
  <outline>
    <contour>
      <point x="286" y="0" type="curve" smooth="yes"/>
      <point x="684" y="0" type="line" smooth="yes"/>
      <point x="727" y="0"/>
      <point x="759" y="33"/>
      <point x="759" y="76" type="curve" smooth="yes"/>
      <point x="759" y="808" type="line"/>
      <point x="900" y="844" type="line"/>
      <point x="922" y="844"/>
      <point x="940" y="867"/>
      <point x="940" y="896" type="curve" smooth="yes"/>
      <point x="940" y="1056" type="line" smooth="yes"/>
      <point x="940" y="1083"/>
      <point x="922" y="1104"/>
      <point x="900" y="1104" type="curve"/>
      <point x="759" y="1068" type="line"/>
      <point x="759" y="1369" type="line" smooth="yes"/>
      <point x="759" y="1412"/>
      <point x="727" y="1444"/>
      <point x="684" y="1444" type="curve" smooth="yes"/>
      <point x="286" y="1444" type="line" smooth="yes"/>
      <point x="243" y="1444"/>
      <point x="210" y="1412"/>
      <point x="210" y="1369" type="curve" smooth="yes"/>
      <point x="210" y="931" type="line"/>
      <point x="82" y="898" type="line"/>
      <point x="61" y="894"/>
      <point x="44" y="873"/>
      <point x="44" y="843" type="curve" smooth="yes"/>
      <point x="44" y="695" type="line" smooth="yes"/>
      <point x="44" y="665.879"/>
      <point x="59.0018" y="637.64"/>
      <point x="78.2288" y="637.64" type="curve" smooth="yes"/>
      <point x="79.4692" y="637.64"/>
      <point x="80.7273" y="637.758"/>
      <point x="82" y="638" type="curve"/>
      <point x="210" y="671" type="line"/>
      <point x="210" y="76" type="line" smooth="yes"/>
      <point x="210" y="33"/>
      <point x="243" y="0"/>
    </contour>
  </outline>
</glyph>
<glyph name="OE" format="1">
  <advance width="3527"/>
  <unicode hex="0152"/>
  <outline>
    <contour>
      <point x="1374" y="345" type="line" smooth="yes"/>
      <point x="1096" y="345"/>
      <point x="896" y="425"/>
      <point x="896" y="722" type="curve" smooth="yes"/>
      <point x="896" y="1009"/>
      <point x="1084" y="1096"/>
      <point x="1375" y="1096" type="curve" smooth="yes"/>
      <point x="1561" y="1096" type="line" smooth="yes"/>
      <point x="1578" y="1096"/>
      <point x="1596" y="1079"/>
      <point x="1596" y="1062" type="curve" smooth="yes"/>
      <point x="1596" y="379" type="line" smooth="yes"/>
      <point x="1596" y="362"/>
      <point x="1579" y="345"/>
      <point x="1562" y="345" type="curve" smooth="yes"/>
    </contour>
    <contour>
      <point x="1421" y="-1" type="curve" smooth="yes"/>
      <point x="1675" y="-1"/>
      <point x="1416" y="0"/>
      <point x="3309" y="0" type="curve" smooth="yes"/>
      <point x="3352" y="0"/>
      <point x="3385" y="34"/>
      <point x="3385" y="77" type="curve" smooth="yes"/>
      <point x="3385" y="268" type="line" smooth="yes"/>
      <point x="3385" y="311"/>
      <point x="3352" y="345"/>
      <point x="3309" y="345" type="curve" smooth="yes"/>
      <point x="2335" y="345" type="line" smooth="yes"/>
      <point x="2318" y="345"/>
      <point x="2301" y="362"/>
      <point x="2301" y="379" type="curve" smooth="yes"/>
      <point x="2301" y="557" type="line" smooth="yes"/>
      <point x="2301" y="574"/>
      <point x="2319" y="591"/>
      <point x="2336" y="591" type="curve" smooth="yes"/>
      <point x="3065" y="591" type="line" smooth="yes"/>
      <point x="3108" y="591"/>
      <point x="3141" y="625"/>
      <point x="3141" y="668" type="curve" smooth="yes"/>
      <point x="3141" y="795" type="line" smooth="yes"/>
      <point x="3141" y="838"/>
      <point x="3108" y="872"/>
      <point x="3065" y="872" type="curve" smooth="yes"/>
      <point x="2335" y="872" type="line" smooth="yes"/>
      <point x="2318" y="872"/>
      <point x="2301" y="891"/>
      <point x="2301" y="908" type="curve" smooth="yes"/>
      <point x="2301" y="1053" type="line" smooth="yes"/>
      <point x="2301" y="1073"/>
      <point x="2317" y="1089"/>
      <point x="2337" y="1089" type="curve" smooth="yes"/>
      <point x="3244" y="1089" type="line" smooth="yes"/>
      <point x="3287" y="1089"/>
      <point x="3319" y="1123"/>
      <point x="3319" y="1166" type="curve" smooth="yes"/>
      <point x="3319" y="1361" type="line" smooth="yes"/>
      <point x="3319" y="1403"/>
      <point x="3286" y="1438"/>
      <point x="3244" y="1438" type="curve" smooth="yes"/>
      <point x="1350" y="1438" type="line" smooth="yes"/>
      <point x="821" y="1438"/>
      <point x="132" y="1292"/>
      <point x="132" y="722" type="curve" smooth="yes"/>
      <point x="132" y="75"/>
      <point x="893" y="-1"/>
    </contour>
  </outline>
</glyph>
<glyph name="uni0237" format="1">
  <advance width="1180"/>
  <unicode hex="0237"/>
  <outline>
    <contour>
      <point x="1020" y="11" type="curve"/>
      <point x="1020" y="931" type="line" smooth="yes"/>
      <point x="1020" y="974"/>
      <point x="987" y="1006"/>
      <point x="944" y="1006" type="curve" smooth="yes"/>
      <point x="545" y="1006" type="line" smooth="yes"/>
      <point x="502" y="1006"/>
      <point x="469" y="974"/>
      <point x="469" y="931" type="curve" smooth="yes"/>
      <point x="469" y="14" type="line" smooth="yes"/>
      <point x="469" y="-110"/>
      <point x="368" y="-146"/>
      <point x="250" y="-146" type="curve" smooth="yes"/>
      <point x="210.845" y="-146"/>
      <point x="157.978" y="-139.455"/>
      <point x="124.142" y="-139.455" type="curve" smooth="yes"/>
      <point x="87.4826" y="-139.455"/>
      <point x="60" y="-168.004"/>
      <point x="60" y="-206" type="curve" smooth="yes"/>
      <point x="60" y="-344" type="line" smooth="yes"/>
      <point x="60" y="-388"/>
      <point x="91" y="-424"/>
      <point x="134" y="-429" type="curve" smooth="yes"/>
      <point x="199.302" y="-437.518"/>
      <point x="283.246" y="-445.532"/>
      <point x="366.163" y="-445.532" type="curve" smooth="yes"/>
      <point x="709.435" y="-445.532"/>
      <point x="1018.91" y="-333.785"/>
    </contour>
  </outline>
</glyph>
<glyph name="uni0311" format="1">
  <advance width="1366"/>
  <unicode hex="0311"/>
  <outline>
    <contour>
      <point x="286.5" y="1192" type="curve"/>
      <point x="536.5" y="1192" type="line"/>
      <point x="538.5" y="1298"/>
      <point x="584.5" y="1346"/>
      <point x="664.5" y="1346" type="curve" smooth="yes"/>
      <point x="745.5" y="1346"/>
      <point x="792.5" y="1297"/>
      <point x="794.5" y="1192" type="curve"/>
      <point x="1044.5" y="1192" type="line"/>
      <point x="1041.5" y="1474"/>
      <point x="830.5" y="1506"/>
      <point x="664.5" y="1506" type="curve" smooth="yes"/>
      <point x="499.5" y="1506"/>
      <point x="289.5" y="1474"/>
    </contour>
  </outline>
</glyph>
<glyph name="emdash" format="1">
  <advance width="2048"/>
  <unicode hex="2014"/>
  <outline>
    <contour>
      <point x="197" y="422" type="curve" smooth="yes"/>
      <point x="1848" y="422" type="line" smooth="yes"/>
      <point x="1886" y="422"/>
      <point x="1917" y="456"/>
      <point x="1917" y="498" type="curve" smooth="yes"/>
      <point x="1917" y="676" type="line" smooth="yes"/>
      <point x="1917" y="716"/>
      <point x="1886" y="748"/>
      <point x="1848" y="748" type="curve" smooth="yes"/>
      <point x="197" y="748" type="line" smooth="yes"/>
      <point x="160" y="748"/>
      <point x="131" y="717"/>
      <point x="131" y="677" type="curve" smooth="yes"/>
      <point x="131" y="495" type="line" smooth="yes"/>
      <point x="131" y="454"/>
      <point x="160" y="422"/>
    </contour>
  </outline>
</glyph>
<glyph name="guilsinglleft" format="1">
  <advance width="774"/>
  <unicode hex="2039"/>
  <outline>
    <contour>
      <point x="628" y="29" type="curve" smooth="yes"/>
      <point x="665" y="29"/>
      <point x="683" y="60"/>
      <point x="683" y="80" type="curve" smooth="yes"/>
      <point x="683" y="182" type="line" smooth="yes"/>
      <point x="683" y="246"/>
      <point x="676" y="272"/>
      <point x="624" y="323" type="curve"/>
      <point x="375" y="501" type="line"/>
      <point x="363" y="513"/>
      <point x="358" y="521"/>
      <point x="358" y="536" type="curve" smooth="yes"/>
      <point x="358" y="550"/>
      <point x="362" y="556"/>
      <point x="375" y="568" type="curve"/>
      <point x="624" y="746" type="line"/>
      <point x="677" y="798"/>
      <point x="683" y="825"/>
      <point x="683" y="888" type="curve" smooth="yes"/>
      <point x="683" y="987" type="line" smooth="yes"/>
      <point x="683" y="1006"/>
      <point x="665" y="1036"/>
      <point x="628" y="1036" type="curve" smooth="yes"/>
      <point x="612" y="1036"/>
      <point x="593" y="1030"/>
      <point x="570" y="1016" type="curve" smooth="yes"/>
      <point x="187" y="768" type="line"/>
      <point x="117" y="721"/>
      <point x="90" y="671"/>
      <point x="90" y="606" type="curve" smooth="yes"/>
      <point x="90" y="453" type="line" smooth="yes"/>
      <point x="90" y="389"/>
      <point x="117" y="350"/>
      <point x="187" y="303" type="curve" smooth="yes"/>
      <point x="570" y="49" type="line"/>
      <point x="593" y="35"/>
      <point x="613" y="29"/>
    </contour>
  </outline>
</glyph>
<glyph name="fraction" format="1">
  <advance width="1405"/>
  <unicode hex="2044"/>
  <outline>
    <contour>
      <point x="111" y="-204" type="curve" smooth="yes"/>
      <point x="124" y="-205"/>
      <point x="394" y="-206"/>
      <point x="396" y="-206" type="curve" smooth="yes"/>
      <point x="427" y="-206"/>
      <point x="446" y="-188"/>
      <point x="455" y="-171" type="curve" smooth="yes"/>
      <point x="1322" y="1594" type="line" smooth="yes"/>
      <point x="1324.59" y="1599.18"/>
      <point x="1328.3" y="1609.76"/>
      <point x="1328.3" y="1620.12" type="curve" smooth="yes"/>
      <point x="1328.3" y="1633.76"/>
      <point x="1321.87" y="1647"/>
      <point x="1298" y="1647" type="curve" smooth="yes"/>
      <point x="1034" y="1647" type="line" smooth="yes"/>
      <point x="1004" y="1647"/>
      <point x="979" y="1638"/>
      <point x="962" y="1605" type="curve" smooth="yes"/>
      <point x="87" y="-171" type="line" smooth="yes"/>
      <point x="85.5142" y="-173.972"/>
      <point x="84.7029" y="-177.434"/>
      <point x="84.7029" y="-180.977" type="curve" smooth="yes"/>
      <point x="84.7029" y="-191.74"/>
      <point x="92.191" y="-203.248"/>
    </contour>
  </outline>
</glyph>
